<?xml version="1.0" encoding="utf-8"?>
<!-- Generator: Adobe Illustrator 15.0.0, SVG Export Plug-In . SVG Version: 6.00 Build 0)  -->
<!DOCTYPE svg PUBLIC "-//W3C//DTD SVG 1.0//EN" "http://www.w3.org/TR/2001/REC-SVG-20010904/DTD/svg10.dtd">
<svg version="1.0" id="Layer_1" xmlns="http://www.w3.org/2000/svg" xmlns:xlink="http://www.w3.org/1999/xlink" x="0px" y="0px"
	 width="346.635px" height="343.267px" viewBox="0 0 346.635 343.267" enable-background="new 0 0 346.635 343.267"
	 xml:space="preserve">
<g>
	<g>
		<defs>
			<circle id="SVGID_1_" cx="173.771" cy="171.636" r="171.635"/>
		</defs>
		<clipPath id="SVGID_2_">
			<use xlink:href="#SVGID_1_"  overflow="visible"/>
		</clipPath>
		<path clip-path="url(#SVGID_2_)" fill="#6D6E71" d="M345.406,171.636c0,94.789-76.844,171.631-171.635,171.631
			S2.138,266.425,2.138,171.636C2.138,76.843,78.98,0,173.771,0S345.406,76.843,345.406,171.636z"/>
		<g clip-path="url(#SVGID_2_)">
			<path fill="#FFFFFF" d="M168.376,278.706c2.564,5.369,2.74,10.734,0.525,16.1c-2.221,5.371-6.011,9.215-11.375,11.551
				c-2.801,1.164-5.601,1.75-8.4,1.75c-3.971,0-7.7-1.111-11.2-3.326s-6.185-5.305-8.05-9.275l-38.851-88.9h-21v80.502
				c0,5.834-2.045,10.795-6.125,14.875c-4.084,4.078-9.045,6.125-14.875,6.125c-5.834,0-10.795-2.047-14.875-6.125
				c-4.084-4.08-6.125-9.041-6.125-14.875V56.105c0-5.83,2.041-10.79,6.125-14.875c4.08-4.08,9.041-6.125,14.875-6.125h50.75
				c8.865,0,17.381,2.51,25.551,7.525c8.165,5.021,15.279,12.195,21.35,21.525c10.5,16.57,15.75,35.47,15.75,56.7
				c0,10.27-1.345,20.184-4.024,29.75c-2.686,9.57-6.596,18.434-11.726,26.6c-2.335,3.5-4.785,6.648-7.35,9.449
				c-2.57,2.801-5.136,5.371-7.7,7.699L168.376,278.706z M150.526,290.255c2.329-0.93,2.914-2.449,1.75-4.549l-43.05-98.352
				c8.399-3.264,15.979-9.799,22.749-19.6c3.965-6.529,7.115-13.879,9.45-22.049c2.33-8.166,3.5-16.451,3.5-24.85
				c0-8.4-1.17-16.68-3.5-24.851c-2.335-8.165-5.485-15.515-9.45-22.05c-4.435-6.765-9.45-12.015-15.05-15.75
				c-5.6-3.729-11.32-5.6-17.15-5.6h-50.75c-2.334,0-3.5,1.17-3.5,3.5v231.001c0,2.334,1.166,3.5,3.5,3.5c2.33,0,3.5-1.166,3.5-3.5
				v-98.002h47.25c1.166,0,1.98-0.113,2.451-0.35l43.749,99.75c0.7,1.4,1.75,2.102,3.15,2.102
				C149.826,290.606,150.291,290.491,150.526,290.255z M126.025,163.905c-3.734,5.836-7.875,10.326-12.424,13.475
				c-4.551,3.15-9.16,4.725-13.826,4.725h-47.25V59.605h47.25c4.666,0,9.275,1.575,13.826,4.725
				c4.549,3.15,8.689,7.525,12.424,13.125c3.966,6.07,6.94,12.835,8.926,20.3c1.979,7.471,2.975,15.171,2.975,23.101
				c0,7.699-0.995,15.285-2.975,22.75C132.966,151.075,129.991,157.841,126.025,163.905z M99.775,164.606
				c1.166,0,2.74-0.756,4.726-2.275c1.979-1.516,4.255-4.141,6.825-7.875c3.029-4.666,5.305-9.916,6.824-15.75
				c1.516-5.831,2.275-11.78,2.275-17.85c0-6.065-0.76-12.075-2.275-18.025c-1.52-5.95-3.795-11.255-6.824-15.925
				c-2.57-3.5-4.846-6.005-6.825-7.525c-1.985-1.515-3.56-2.274-4.726-2.274h-29.75v87.5H99.775z"/>
			<path fill="#FFFFFF" d="M318.875,170.556c5.364,7.699,9.449,16.275,12.25,25.725c2.8,9.449,4.199,19.311,4.199,29.574
				c0,10.5-1.399,20.477-4.199,29.926c-2.801,9.449-6.886,18.025-12.25,25.725c-6.07,8.871-13.125,15.637-21.176,20.301
				c-8.05,4.664-16.51,7-25.375,7h-50.05h-0.35c-5.835,0-10.796-2.045-14.875-6.125c-4.085-4.08-6.125-9.039-6.125-14.875V55.755
				c0-5.83,2.04-10.79,6.125-14.875c4.079-4.08,9.04-6.125,14.875-6.125h0.35h44.101c8.164,0,15.979,2.16,23.449,6.475
				c7.465,4.32,13.88,10.56,19.25,18.725c4.665,6.771,8.28,14.471,10.851,23.1c2.564,8.636,3.85,17.621,3.85,26.95
				c0,9.101-1.225,17.91-3.675,26.425c-2.45,8.52-6.01,16.161-10.675,22.926C312.689,162.392,315.84,166.126,318.875,170.556z
				 M304.524,271.706c4.2-6.301,7.465-13.355,9.8-21.176c2.33-7.814,3.5-16.039,3.5-24.676c0-8.398-1.17-16.504-3.5-24.324
				c-2.335-7.814-5.6-14.875-9.8-21.176c-6.535-9.1-13.885-15.049-22.05-17.85c2.33-1.629,4.49-3.439,6.475-5.424
				c1.98-1.98,3.905-4.256,5.775-6.826c3.729-5.363,6.59-11.549,8.575-18.549c1.979-7,2.975-14.229,2.975-21.7
				c0-7.465-0.995-14.7-2.975-21.7c-1.985-7-4.846-13.18-8.575-18.55c-7.936-11.665-17.385-17.5-28.35-17.5h-44.101h-0.35
				c-2.335,0-3.5,1.17-3.5,3.5v232.05c0,2.336,1.165,3.5,3.5,3.5h0.35h50.05c6.065,0,11.84-1.75,17.325-5.25
				C295.129,282.556,300.09,277.776,304.524,271.706z M299.274,110.005c0,6.771-0.875,13.186-2.625,19.25
				c-1.75,6.07-4.146,11.435-7.175,16.101c-3.035,4.67-6.535,8.398-10.5,11.199c-3.971,2.801-8.17,4.199-12.6,4.199h-40.95v-101.5
				h40.95c4.43,0,8.629,1.4,12.6,4.2c3.965,2.8,7.465,6.535,10.5,11.2c3.029,4.67,5.425,10.035,7.175,16.1
				C298.399,96.826,299.274,103.241,299.274,110.005z M272.324,167.755c5.13,0,10.03,1.576,14.7,4.727
				c4.665,3.148,8.75,7.408,12.25,12.773c3.5,5.371,6.3,11.551,8.4,18.551c2.1,7,3.149,14.35,3.149,22.049
				c0,7.701-1.05,15.111-3.149,22.227c-2.101,7.119-4.9,13.359-8.4,18.725c-3.5,5.369-7.585,9.625-12.25,12.775
				c-4.67,3.148-9.57,4.725-14.7,4.725h-46.899V167.755H272.324z M242.925,143.255h23.45c0.699,0,1.75-0.523,3.149-1.574
				c1.4-1.051,3.03-2.855,4.9-5.425c2.564-3.265,4.43-7.229,5.6-11.899c1.165-4.665,1.75-9.45,1.75-14.351
				c0-4.899-0.585-9.68-1.75-14.35c-1.17-4.665-3.035-8.63-5.6-11.9c-1.87-2.564-3.5-4.375-4.9-5.425
				c-1.399-1.05-2.45-1.575-3.149-1.575h-23.45V143.255z M272.324,266.806c1.865,0,4.025-0.93,6.476-2.801
				c2.45-1.865,4.725-4.604,6.825-8.225c2.1-3.615,3.904-7.93,5.425-12.949c1.515-5.016,2.274-10.676,2.274-16.977
				c0-6.299-0.76-11.953-2.274-16.975c-1.521-5.014-3.325-9.275-5.425-12.775c-2.101-3.5-4.375-6.18-6.825-8.049
				c-2.45-1.865-4.61-2.801-6.476-2.801h-29.399v81.551H272.324z"/>
		</g>
	</g>
</g>
</svg>
